<svg xmlns="http://www.w3.org/2000/svg" viewBox="0 0 179.92 165.27"><defs><style>.cls-1,.cls-2{fill:none;}.cls-2{stroke:#231f20;stroke-miterlimit:10;stroke-width:1.5px;}</style></defs><title>pattern</title><g id="Layer_2" data-name="Layer 2"><g id="Layer_3" data-name="Layer 3"><rect class="cls-1" width="179.92" height="165.27"/><path class="cls-2" d="M33.48,4.36V37.81A14.49,14.49,0,0,0,47.93,52.26h0A14.5,14.5,0,0,0,62.39,37.81v-5"/><path class="cls-2" d="M85.67,52.26V18.81A14.5,14.5,0,0,0,71.21,4.36h0A14.49,14.49,0,0,0,56.76,18.81v5"/><path class="cls-2" d="M123.25,4.36V37.81A14.49,14.49,0,0,0,137.7,52.26h0a14.49,14.49,0,0,0,14.45-14.45v-5"/><path class="cls-2" d="M175.43,52.26V18.81A14.49,14.49,0,0,0,161,4.36h0a14.49,14.49,0,0,0-14.45,14.45v5"/><path class="cls-2" d="M4.57,87.35v33.46A14.5,14.5,0,0,0,19,135.26h0a14.5,14.5,0,0,0,14.46-14.45v-5"/><path class="cls-2" d="M56.75,135.26V101.8A14.5,14.5,0,0,0,42.3,87.35h0A14.5,14.5,0,0,0,27.85,101.8v5"/><path class="cls-2" d="M94.33,87.35v33.46a14.5,14.5,0,0,0,14.46,14.45h0a14.5,14.5,0,0,0,14.45-14.45v-5"/><path class="cls-2" d="M146.52,135.26V101.8a14.5,14.5,0,0,0-14.45-14.45h0a14.5,14.5,0,0,0-14.46,14.45v5"/></g></g></svg>