<?xml version="1.0" encoding="utf-8"?>
<!-- Generator: Adobe Illustrator 18.1.1, SVG Export Plug-In . SVG Version: 6.00 Build 0)  -->
<!DOCTYPE svg PUBLIC "-//W3C//DTD SVG 1.1//EN" "http://www.w3.org/Graphics/SVG/1.1/DTD/svg11.dtd">
<svg version="1.1" id="Layer_1" xmlns="http://www.w3.org/2000/svg" xmlns:xlink="http://www.w3.org/1999/xlink" x="0px" y="0px"
	 viewBox="0 0 1076 440" enable-background="new 0 0 1076 440" xml:space="preserve">
<g>
	<g>
		<g>
			<polygon fill="#231F20" points="199.5,120.2 193.7,120.2 199.5,120.1 199.5,120.1 171.5,120.1 171.5,142.6 199.5,148.6 			"/>
			<path fill="#231F20" d="M199.5,260.1c-7.7,11.9-16.3,21.8-23,28.1c-7.4,6.9-16.5,10.1-27,10.1c-12.6,0-21.4-4.9-26.4-14.7
				c-4.9-9.8-7.4-23.3-7.4-40.7v-93.8l22.6-6.2v-22.5H29.2V143l27.2,6.2v95.4c0,17.1,1.6,31.2,4.7,42.3c3.2,11.2,7.7,20,13.6,26.6
				c5.9,6.6,13.1,11.2,21.6,13.8c8.5,2.6,18.1,3.9,28.8,3.9c16.5,0,30.2-4.6,42-12.6c11-7.4,22.6-18.8,32.3-32.2V260.1z"/>
		</g>
		<g>
			<polygon fill="#231F20" points="199.5,303.2 199.5,330.8 199.5,330.8 199.5,331.1 225.3,331.1 225.3,308.6 			"/>
			<path fill="#231F20" d="M339.3,302.7v-95.6c0-17.1-1.6-31.2-4.7-42.3c-3.2-11.2-7.7-20-13.6-26.6c-5.9-6.6-13.1-11.2-21.6-13.8
				s-18.1-3.9-28.8-3.9c-16.5,0-30.5,4.2-42,12.6c-8.9,6.4-18.9,19.1-29,34.7v24.7c4.9-8.5,10-16.7,14.9-24
				c7.2-10.7,19.5-18.9,32-17.8c12.6,1.2,21.2,7.6,26.1,17.3c4.9,9.8,7.4,23.3,7.4,40.7v94l-22.6,6v22.5h109.2v-22.5L339.3,302.7z"
				/>
		</g>
		<g>
			<path fill="#231F20" d="M530.2,125.2c-15.4,0-28.7,3.8-40,11.5c-11.3,7.7-19.6,18.4-25.1,32.1h-0.8L464.1,23l-90.8,5.2l0.4,24.7
				l31.3,3.3v267.9c3,1.9,7.9,3.9,14.6,5.8c6.7,1.9,14.1,3.6,22,5c8,1.4,16.2,2.5,24.7,3.5c8.5,1,16.2,1.4,23.1,1.4
				c38.4,0,67.6-9.5,87.5-28.4c19.9-19,29.9-47.2,29.9-84.9c0-34-6.7-59.4-20.2-76.2C573.2,133.6,554.4,125.2,530.2,125.2z
				 M532.1,295.3c-7.3,14-18.7,21-34.4,21c-7.1,0-13.5-0.8-19.2-2.5c-5.6-1.6-10.4-3.8-14.2-6.6V198.1c3-11.5,7.7-21.1,14-28.6
				c6.3-7.5,14.7-11.3,25.1-11.3c14.6,0,24.8,6.5,30.7,19.4c5.9,12.9,8.9,30.2,8.9,51.9C543,259.4,539.3,281.3,532.1,295.3z"/>
			<path fill="#231F20" d="M1054.8,126.9l-108.3-2.2l0.1,0.1c-1.2,0-2.3,0-3.5,0c-29.1,0-52.2,5.8-69.2,17.3
				c-17,11.5-25.5,27.6-25.5,48.2c0,17.3,5.1,31.5,15.2,42.6c10.2,11.1,23.9,18.6,41.2,22.4c-4.1,1.7-8.2,3.6-12.4,6
				c-4.1,2.3-8,4.9-11.5,7.8c-3.6,2.9-6.5,6-8.6,9.5c-2.2,3.4-3.3,6.9-3.3,10.5c0,4.1,1,7.8,2.9,10.9c1.9,3.2,4.4,5.9,7.4,8.2
				c3,2.3,6.4,4.3,10.3,6c3.8,1.7,7.8,3,12,4.1c-8.8,2.2-16.8,4.7-24.1,7.4c-7.3,2.7-13.7,6.2-19.2,10.3c-5.5,4.1-9.7,8.9-12.8,14.4
				c-3,5.5-4.5,12.1-4.5,19.8c0,6.9,1.9,13.5,5.6,19.8c3.7,6.3,9.5,11.9,17.5,16.9c8,4.9,18.3,8.9,31.1,11.7
				c12.8,2.9,28.2,4.3,46.3,4.3c15.4,0,29.9-1.6,43.5-4.7c13.6-3.2,25.4-7.7,35.4-13.6c10-5.9,17.9-13.1,23.7-21.6
				c5.8-8.5,8.5-18.3,8.2-29.2c-0.3-11.5-3.8-20.9-10.7-28.2c-6.9-7.3-15.4-13.2-25.5-17.7c-10.2-4.5-21.1-8.2-32.7-10.9
				c-11.7-2.7-22.6-5.2-32.8-7.4c-10.2-2.2-18.5-4.7-25.1-7.4c-6.6-2.7-9.9-6.4-9.9-11.1c0-2.2,0.6-4.5,1.8-6.8
				c1.2-2.3,2.4-4.3,3.5-6c2.7,0.6,6,0.9,9.7,1c3.7,0.1,7.9,0.2,12.6,0.2c15.9,0,29.9-1.8,41.8-5.4c11.9-3.6,21.8-8.4,29.7-14.6
				c7.8-6.2,13.7-13.2,17.5-21.2c3.8-8,5.8-16.5,5.8-25.5c0-8.5-1.7-15.7-3.9-22c-2.1-6-5.1-11.3-8.5-15.8l29.4-3.5V126.9z
				 M920.1,323.3c8.8,2.7,17.6,5.2,26.6,7.2c8.9,2.1,17,4.5,24.1,7.4c7.1,2.9,13,6.6,17.5,11.1c4.5,4.5,6.8,10.5,6.8,17.9
				c0,8.8-3.7,16.4-11.1,22.9s-18.8,9.7-34.2,9.7c-15.6,0-27.8-3.5-36.4-10.5c-8.7-7-13-16.8-13-29.5c0-7.7,1.5-14.3,4.5-19.8
				C907.8,334.3,912.9,328.8,920.1,323.3z M970.9,224.7c-5.1,7.6-14.4,11.3-27.8,11.3c-14,0-23.4-3.7-28.2-11.1
				c-4.8-7.4-7.2-18.3-7.2-32.5c0-15.1,2.5-26.2,7.4-33.4c4.9-7.1,14.3-10.7,28-10.7c13.2,0,22.4,3.6,27.6,10.9
				c5.2,7.3,7.8,18.3,7.8,33.2C978.6,206.3,976,217.1,970.9,224.7z"/>
			<path fill="#231F20" d="M806.9,305h0.1c-0.4-4.5-0.5-8.9-0.6-13c-0.1-4.4-0.2-9.6-0.2-15.7c0-14,0.3-27.7,1-41
				c0.7-13.3,1-28.2,1-44.7c0-9.1-1.1-17.6-3.3-25.5c-2.2-8-6.1-14.9-11.7-20.8c-5.6-5.9-13.4-10.6-23.3-14
				c-9.9-3.4-22.7-5.1-38.3-5.1c-18.4,0-35.8,2.1-52.3,6.2c-16.5,4.1-29.9,9.8-40.4,16.9l23.2,52l22.6-4.5l6.8-44.4
				c33.2-9.6,50.4,2.8,54.5,13.8c4.1,11,5.1,28.3,2.9,51.9c-22.5,1.1-41.7,2.9-57.5,5.4c-15.8,2.5-28.7,6.2-38.7,11.3
				c-10,5.1-17.4,11.6-22,19.6c-4.7,8-7,18.1-7,30.5c0,8.8,1.7,16.7,4.9,23.7c3.3,7,7.8,13,13.6,17.9c5.8,4.9,12.5,8.8,20.2,11.5
				c7.7,2.7,16.1,4.1,25.1,4.1c8.5,0,16.2-1.2,23.1-3.7c6.9-2.5,12.8-5.7,17.9-9.7c5.1-4,9.3-8.5,12.6-13.6c3.3-5.1,5.6-10.4,7-15.9
				h2.1c0,0,0,7.1,1.1,16.7c0.1,1.9,0.2,3.8,0.5,5.6c0.7,5,1.2,9.1,5.5,12.7c4.3,3.6,10.5,5.2,20,5.2c5.3,0,10.8-0.6,16.6-1.7
				c5.8-1.1,11.4-2.5,16.8-4.2c5.4-1.7,10.4-3.7,15-5.9c4.6-2.3,8.2-4.5,11-6.8v-14.4h-29.7L806.9,305z M749,277.6
				c-0.8,2.7-2,5.9-3.5,9.5c-1.5,3.6-3.7,6.9-6.6,9.9c-2.9,3-6.4,5.6-10.5,7.8c-4.1,2.2-9.1,3.3-14.8,3.3c-8.8,0-15.7-2.9-20.6-8.6
				c-4.9-5.8-7.4-13.9-7.4-24.3c0-6.9,0.9-12.7,2.7-17.5c1.8-4.8,5-8.8,9.7-11.9c4.7-3.2,11.1-5.4,19.4-6.8
				c8.2-1.4,18.8-2.2,31.7-2.5V277.6z"/>
		</g>
	</g>
</g>
</svg>
